<svg width="40" height="40" viewBox="0 0 40 40" fill="none" xmlns="http://www.w3.org/2000/svg">
<path d="M20 40C31.0457 40 40 31.0457 40 20C40 8.95431 31.0457 0 20 0C8.95431 0 0 8.95431 0 20C0 31.0457 8.95431 40 20 40Z" fill="#3478F5" fill-opacity="0.2"/>
<path d="M20 29.6C25.3019 29.6 29.6 25.3019 29.6 20C29.6 14.6981 25.3019 10.4 20 10.4C14.6981 10.4 10.4 14.6981 10.4 20C10.4 25.3019 14.6981 29.6 20 29.6Z" fill="white"/>
<path d="M20 28C24.4183 28 28 24.4183 28 20C28 15.5817 24.4183 12 20 12C15.5817 12 12 15.5817 12 20C12 24.4183 15.5817 28 20 28Z" fill="#3478F5"/>
</svg>
