<svg width="24" height="24" viewBox="0 0 24 24" fill="none" xmlns="http://www.w3.org/2000/svg">
<path d="M21.5075 19.1427C21.6636 19.2974 21.7874 19.4817 21.8719 19.6846C21.9565 19.8876 22 20.1052 22 20.325C22 20.5448 21.9565 20.7626 21.8719 20.9654C21.7874 21.1684 21.6636 21.3526 21.5075 21.5074C21.3527 21.6635 21.1685 21.7874 20.9656 21.8719C20.7627 21.9565 20.5451 22 20.3253 22C20.1055 22 19.8879 21.9565 19.6849 21.8719C19.482 21.7874 19.2978 21.6635 19.1431 21.5074L12 14.3466L4.8569 21.5074C4.70211 21.6635 4.51796 21.7874 4.31505 21.8719C4.11215 21.9565 3.89452 22 3.67471 22C3.4549 22 3.23727 21.9565 3.03437 21.8719C2.83147 21.7874 2.64731 21.6635 2.49252 21.5074C2.33646 21.3526 2.21259 21.1684 2.12806 20.9654C2.04352 20.7626 2 20.5448 2 20.325C2 20.1052 2.04352 19.8876 2.12806 19.6846C2.21259 19.4817 2.33646 19.2974 2.49252 19.1427L9.65226 11.9986L2.49252 4.85446C2.17898 4.54089 2.00284 4.11558 2.00284 3.6721C2.00284 3.22864 2.17898 2.80333 2.49252 2.48975C2.80606 2.17617 3.23131 2 3.67471 2C4.11811 2 4.54336 2.17617 4.8569 2.48975L12 9.6505L19.1431 2.48975C19.4566 2.17617 19.8818 2 20.3253 2C20.7687 2 21.1939 2.17617 21.5075 2.48975C21.821 2.80333 21.9971 3.22864 21.9971 3.6721C21.9971 4.11558 21.821 4.54089 21.5075 4.85446L14.3477 11.9986L21.5075 19.1427Z" fill="black"/>
</svg>
