<svg width="35" height="45" viewBox="0 0 35 45" fill="none" xmlns="http://www.w3.org/2000/svg">
<g clip-path="url(#clip0_481_74)">
<g filter="url(#filter0_f_481_74)">
<path d="M17.5 43.3332C20.7216 43.3332 23.3333 42.4004 23.3333 41.2498C23.3333 40.0992 20.7216 39.1665 17.5 39.1665C14.2783 39.1665 11.6666 40.0992 11.6666 41.2498C11.6666 42.4004 14.2783 43.3332 17.5 43.3332Z" fill="black" fill-opacity="0.2"/>
</g>
<path fill-rule="evenodd" clip-rule="evenodd" d="M17.5 0C27.165 0 35 7.83502 35 17.5C35 24.9105 30.3939 31.2452 23.8886 33.7972L18.4967 41.1672C18.3843 41.3215 18.2351 41.4474 18.0616 41.5343C17.8881 41.6212 17.6955 41.6667 17.5 41.6667C17.3045 41.6667 17.1119 41.6212 16.9384 41.5343C16.7649 41.4474 16.6157 41.3215 16.5032 41.1672L11.1114 33.7972C4.60605 31.2451 0 24.9105 0 17.5C0 7.83502 7.83502 0 17.5 0Z" fill="#F75751"/>
<path d="M25 17.5C25 13.3578 21.6422 10 17.5 10C13.3578 10 10 13.3578 10 17.5C10 21.6422 13.3578 25 17.5 25C21.6422 25 25 21.6422 25 17.5Z" fill="#BE2E28"/>
</g>
<defs>
<filter id="filter0_f_481_74" x="9.66663" y="37.1665" width="15.6666" height="8.1665" filterUnits="userSpaceOnUse" color-interpolation-filters="sRGB">
<feFlood flood-opacity="0" result="BackgroundImageFix"/>
<feBlend mode="normal" in="SourceGraphic" in2="BackgroundImageFix" result="shape"/>
<feGaussianBlur stdDeviation="1" result="effect1_foregroundBlur_481_74"/>
</filter>
<clipPath id="clip0_481_74">
<rect width="35" height="45" fill="white"/>
</clipPath>
</defs>
</svg>

