<svg width="24" height="24" viewBox="0 0 24 24" fill="none" xmlns="http://www.w3.org/2000/svg">
<path d="M12 2C6.5 2 2 6.5 2 12C2 17.5 6.5 22 12 22C17.5 22 22 17.5 22 12C22 6.5 17.5 2 12 2ZM12 4.22222C13.7222 4.22222 15.3333 4.83333 16.6667 5.77778L5.77778 16.6667C4.83333 15.3333 4.22222 13.7222 4.22222 12C4.22222 7.72222 7.72222 4.22222 12 4.22222ZM12 19.7778C10.2778 19.7778 8.66667 19.1667 7.33333 18.2222L18.2222 7.33333C19.1667 8.66667 19.7778 10.2778 19.7778 12C19.7778 16.2778 16.2778 19.7778 12 19.7778Z" fill="#000000"/>
</svg>
