<svg width="32" height="32" viewBox="0 0 32 32" fill="none" xmlns="http://www.w3.org/2000/svg">
<path d="M23.7754 22.6511L20.8091 19.7067C21.9605 18.2699 22.5181 16.4464 22.3672 14.6109C22.2164 12.7753 21.3685 11.0675 19.998 9.83834C18.6275 8.60923 16.8385 7.95232 14.9989 8.0027C13.1593 8.05307 11.4089 8.8069 10.1076 10.1092C8.80629 11.4115 8.05303 13.1632 8.00269 15.0042C7.95236 16.8452 8.60876 18.6356 9.83694 20.0071C11.0651 21.3787 12.7717 22.2271 14.6058 22.3781C16.4399 22.5291 18.2622 21.9711 19.6978 20.8188L22.64 23.7633C22.7143 23.8383 22.8028 23.8978 22.9002 23.9385C22.9976 23.9791 23.1022 24 23.2077 24C23.3132 24 23.4178 23.9791 23.5151 23.9385C23.6126 23.8978 23.701 23.8383 23.7754 23.7633C23.9194 23.6141 24 23.4147 24 23.2072C24 22.9998 23.9194 22.8004 23.7754 22.6511ZM9.61576 15.2179C9.61576 14.1102 9.944 13.0273 10.559 12.1062C11.1739 11.1851 12.048 10.4673 13.0707 10.0433C14.0933 9.61941 15.2186 9.5085 16.3043 9.72461C17.3899 9.94072 18.3872 10.4742 19.1698 11.2575C19.9526 12.0408 20.4856 13.0388 20.7016 14.1252C20.9175 15.2117 20.8067 16.3379 20.3831 17.3613C19.9595 18.3848 19.2422 19.2595 18.3218 19.8749C17.4014 20.4904 16.3194 20.8188 15.2124 20.8188C13.7281 20.8188 12.3046 20.2287 11.255 19.1783C10.2054 18.128 9.61576 16.7034 9.61576 15.2179Z" fill="black"/>
</svg>
