<svg width="24" height="24" viewBox="0 0 24 24" fill="none" xmlns="http://www.w3.org/2000/svg">
<g clip-path="url(#clip0_437_210)">
<path fill-rule="evenodd" clip-rule="evenodd" d="M17.8458 11.9999C17.8458 10.8537 18.7762 9.92285 19.9229 9.92285C21.0692 9.92285 22 10.8537 22 11.9999C22 13.1462 21.0692 14.077 19.9229 14.077C18.7762 14.077 17.8458 13.1462 17.8458 11.9999Z" fill="#D9D9D9"/>
<path fill-rule="evenodd" clip-rule="evenodd" d="M16.1333 16.1332C16.9442 15.3228 18.2604 15.3228 19.0712 16.1332C19.8817 16.944 19.8817 18.2603 19.0712 19.0711C18.2604 19.8815 16.9442 19.8815 16.1333 19.0711C15.3229 18.2603 15.3229 16.944 16.1333 16.1332Z" fill="#B3B3B3"/>
<path d="M12 21.9999C13.1471 21.9999 14.0771 21.0699 14.0771 19.9228C14.0771 18.7756 13.1471 17.8457 12 17.8457C10.8529 17.8457 9.92291 18.7756 9.92291 19.9228C9.92291 21.0699 10.8529 21.9999 12 21.9999Z" fill="#8C8C8C"/>
<path fill-rule="evenodd" clip-rule="evenodd" d="M7.86671 16.1332C8.67713 16.944 8.67713 18.2603 7.86671 19.0711C7.05588 19.8815 5.73963 19.8815 4.9288 19.0711C4.11838 18.2603 4.11838 16.944 4.9288 16.1332C5.73963 15.3228 7.05588 15.3228 7.86671 16.1332Z" fill="#666666"/>
<path fill-rule="evenodd" clip-rule="evenodd" d="M6.15417 11.9999C6.15417 13.1462 5.22375 14.077 4.07708 14.077C2.93083 14.077 2 13.1462 2 11.9999C2 10.8537 2.93083 9.92285 4.07708 9.92285C5.22375 9.92285 6.15417 10.8537 6.15417 11.9999Z" fill="#404040"/>
<path fill-rule="evenodd" clip-rule="evenodd" d="M7.86671 7.86677C7.05588 8.67719 5.73963 8.67719 4.9288 7.86677C4.11838 7.05594 4.11838 5.73969 4.9288 4.92886C5.73963 4.11844 7.05588 4.11844 7.86671 4.92886C8.67713 5.73969 8.67713 7.05594 7.86671 7.86677Z" fill="#404040"/>
<path d="M12 6.15417C13.1471 6.15417 14.0771 5.22422 14.0771 4.07708C14.0771 2.92994 13.1471 2 12 2C10.8529 2 9.92291 2.92994 9.92291 4.07708C9.92291 5.22422 10.8529 6.15417 12 6.15417Z" fill="black"/>
</g>
<defs>
<clipPath id="clip0_437_210">
<rect width="24" height="24" fill="white"/>
</clipPath>
</defs>
</svg>
